<svg width="24" height="24" viewBox="0 0 24 24" fill="none" xmlns="http://www.w3.org/2000/svg">
    <path d="M16.5197 5.83297L16.5344 5.8204C16.7576 5.62927 17.0447 5.5294 17.3383 5.54074C17.6319 5.55208 17.9104 5.6738 18.1182 5.88158C18.326 6.08936 18.4477 6.36789 18.4591 6.66151C18.4704 6.95513 18.3705 7.24222 18.1794 7.4654L18.1668 7.48007L13.6467 12.0002L18.1668 16.5203L18.1794 16.5349C18.3705 16.7581 18.4704 17.0452 18.4591 17.3388C18.4477 17.6325 18.326 17.911 18.1182 18.1188C17.9104 18.3265 17.6319 18.4483 17.3383 18.4596C17.0447 18.471 16.7576 18.3711 16.5344 18.1799L16.5197 18.1674L11.9994 13.647L7.49814 18.1421C7.28947 18.3766 6.98557 18.5202 6.67163 18.5323C6.35029 18.5447 6.02904 18.4189 5.80164 18.1915C5.57425 17.9641 5.44839 17.6429 5.4608 17.3215C5.47293 17.0074 5.61665 16.7034 5.85131 16.4947L10.3525 11.9997L5.83231 7.47327L5.81985 7.45874C5.62872 7.23555 5.52885 6.94846 5.54019 6.65484C5.55153 6.36122 5.67325 6.08269 5.88103 5.87491C6.08881 5.66714 6.36734 5.54541 6.66096 5.53407C6.95458 5.52273 7.24167 5.6226 7.46485 5.81374L7.47965 5.82641L11.9999 10.3528L16.5197 5.83297Z"
          fill="url(#paint0_linear_4065_114555)"/>
    <defs>
        <linearGradient id="paint0_linear_4065_114555" x1="5.45996" y1="12.0332" x2="16.0655" y2="17.0725"
                        gradientUnits="userSpaceOnUse">
            <stop stop-color="#2389DC"/>
            <stop offset="1" stop-color="#490B99"/>
        </linearGradient>
    </defs>
</svg>
